<mxfile host="app.diagrams.net" modified="2023-09-26T23:57:30.461Z" agent="Mozilla/5.0 (Windows NT 10.0; Win64; x64) AppleWebKit/537.36 (KHTML, like Gecko) Chrome/117.0.0.0 Safari/537.36" etag="-HSgpiO2AKleV7elk_If" version="21.8.2" type="github">
  <diagram name="Página-1" id="r6bJj1AHxocIJLyuA_bQ">
    <mxGraphModel dx="1434" dy="782" grid="1" gridSize="10" guides="1" tooltips="1" connect="1" arrows="1" fold="1" page="1" pageScale="1" pageWidth="827" pageHeight="1169" math="0" shadow="0">
      <root>
        <mxCell id="0" />
        <mxCell id="1" parent="0" />
        <mxCell id="ATfP_TEIRzoJEn-5p97k-13" style="rounded=0;orthogonalLoop=1;jettySize=auto;html=1;exitX=1;exitY=0.3333333333333333;exitDx=0;exitDy=0;exitPerimeter=0;entryX=0;entryY=0.5;entryDx=0;entryDy=0;endArrow=none;endFill=0;" parent="1" source="ATfP_TEIRzoJEn-5p97k-1" target="ATfP_TEIRzoJEn-5p97k-10" edge="1">
          <mxGeometry relative="1" as="geometry" />
        </mxCell>
        <mxCell id="ATfP_TEIRzoJEn-5p97k-14" style="rounded=0;orthogonalLoop=1;jettySize=auto;html=1;exitX=1;exitY=0.3333333333333333;exitDx=0;exitDy=0;exitPerimeter=0;entryX=0;entryY=0.5;entryDx=0;entryDy=0;endArrow=none;endFill=0;" parent="1" source="ATfP_TEIRzoJEn-5p97k-1" target="ATfP_TEIRzoJEn-5p97k-6" edge="1">
          <mxGeometry relative="1" as="geometry" />
        </mxCell>
        <mxCell id="ATfP_TEIRzoJEn-5p97k-27" style="rounded=0;orthogonalLoop=1;jettySize=auto;html=1;exitX=1;exitY=0.3333333333333333;exitDx=0;exitDy=0;exitPerimeter=0;entryX=0;entryY=0.5;entryDx=0;entryDy=0;endArrow=none;endFill=0;" parent="1" source="ATfP_TEIRzoJEn-5p97k-1" target="ATfP_TEIRzoJEn-5p97k-22" edge="1">
          <mxGeometry relative="1" as="geometry" />
        </mxCell>
        <mxCell id="ATfP_TEIRzoJEn-5p97k-32" style="rounded=0;orthogonalLoop=1;jettySize=auto;html=1;exitX=1;exitY=0.3333333333333333;exitDx=0;exitDy=0;exitPerimeter=0;entryX=0;entryY=0.5;entryDx=0;entryDy=0;endArrow=none;endFill=0;" parent="1" source="ATfP_TEIRzoJEn-5p97k-1" target="ATfP_TEIRzoJEn-5p97k-31" edge="1">
          <mxGeometry relative="1" as="geometry" />
        </mxCell>
        <mxCell id="ATfP_TEIRzoJEn-5p97k-1" value="Cliente" style="shape=umlActor;verticalLabelPosition=bottom;verticalAlign=top;html=1;" parent="1" vertex="1">
          <mxGeometry x="80" y="130" width="40" height="100" as="geometry" />
        </mxCell>
        <mxCell id="ATfP_TEIRzoJEn-5p97k-6" value="CDU03-&lt;br&gt;Agenda um horário" style="ellipse;whiteSpace=wrap;html=1;" parent="1" vertex="1">
          <mxGeometry x="364" y="150" width="100" height="50" as="geometry" />
        </mxCell>
        <mxCell id="ATfP_TEIRzoJEn-5p97k-10" value="CDU01- Cadastrar" style="ellipse;whiteSpace=wrap;html=1;" parent="1" vertex="1">
          <mxGeometry x="364" y="10" width="100" height="50" as="geometry" />
        </mxCell>
        <mxCell id="ATfP_TEIRzoJEn-5p97k-23" style="rounded=0;orthogonalLoop=1;jettySize=auto;html=1;exitX=0;exitY=0.3333333333333333;exitDx=0;exitDy=0;exitPerimeter=0;entryX=1;entryY=0.5;entryDx=0;entryDy=0;endArrow=none;endFill=0;" parent="1" source="ATfP_TEIRzoJEn-5p97k-20" target="ATfP_TEIRzoJEn-5p97k-22" edge="1">
          <mxGeometry relative="1" as="geometry" />
        </mxCell>
        <mxCell id="ATfP_TEIRzoJEn-5p97k-20" value="Consultor N1" style="shape=umlActor;verticalLabelPosition=bottom;verticalAlign=top;html=1;" parent="1" vertex="1">
          <mxGeometry x="670" y="130" width="40" height="100" as="geometry" />
        </mxCell>
        <mxCell id="ATfP_TEIRzoJEn-5p97k-22" value="CDU04-&lt;br&gt;Envia o Orçamento" style="ellipse;whiteSpace=wrap;html=1;" parent="1" vertex="1">
          <mxGeometry x="364" y="220" width="100" height="50" as="geometry" />
        </mxCell>
        <mxCell id="ATfP_TEIRzoJEn-5p97k-30" style="rounded=0;orthogonalLoop=1;jettySize=auto;html=1;exitX=0;exitY=0.5;exitDx=0;exitDy=0;entryX=1;entryY=0.3333333333333333;entryDx=0;entryDy=0;entryPerimeter=0;endArrow=none;endFill=0;" parent="1" source="ATfP_TEIRzoJEn-5p97k-29" target="ATfP_TEIRzoJEn-5p97k-1" edge="1">
          <mxGeometry relative="1" as="geometry" />
        </mxCell>
        <mxCell id="ATfP_TEIRzoJEn-5p97k-29" value="CDU02&lt;br&gt;Logar" style="ellipse;whiteSpace=wrap;html=1;" parent="1" vertex="1">
          <mxGeometry x="364" y="80" width="100" height="50" as="geometry" />
        </mxCell>
        <mxCell id="ATfP_TEIRzoJEn-5p97k-31" value="CDU05-&lt;br&gt;Realiza o Pagamento" style="ellipse;whiteSpace=wrap;html=1;" parent="1" vertex="1">
          <mxGeometry x="364" y="290" width="100" height="50" as="geometry" />
        </mxCell>
        <mxCell id="ATfP_TEIRzoJEn-5p97k-35" style="rounded=0;orthogonalLoop=1;jettySize=auto;html=1;exitX=0;exitY=0.3333333333333333;exitDx=0;exitDy=0;exitPerimeter=0;entryX=1;entryY=0.5;entryDx=0;entryDy=0;endArrow=none;endFill=0;" parent="1" source="ATfP_TEIRzoJEn-5p97k-33" target="ATfP_TEIRzoJEn-5p97k-34" edge="1">
          <mxGeometry relative="1" as="geometry" />
        </mxCell>
        <mxCell id="ATfP_TEIRzoJEn-5p97k-33" value="Consultor N2" style="shape=umlActor;verticalLabelPosition=bottom;verticalAlign=top;html=1;" parent="1" vertex="1">
          <mxGeometry x="670" y="380" width="40" height="100" as="geometry" />
        </mxCell>
        <mxCell id="ATfP_TEIRzoJEn-5p97k-39" style="rounded=0;orthogonalLoop=1;jettySize=auto;html=1;exitX=1;exitY=0;exitDx=0;exitDy=0;entryX=0;entryY=0.3333333333333333;entryDx=0;entryDy=0;entryPerimeter=0;endArrow=none;endFill=0;" parent="1" source="ATfP_TEIRzoJEn-5p97k-34" target="ATfP_TEIRzoJEn-5p97k-20" edge="1">
          <mxGeometry relative="1" as="geometry" />
        </mxCell>
        <mxCell id="ATfP_TEIRzoJEn-5p97k-34" value="CDU06-&lt;br&gt;Recebe a Tarefa" style="ellipse;whiteSpace=wrap;html=1;" parent="1" vertex="1">
          <mxGeometry x="364" y="390" width="100" height="50" as="geometry" />
        </mxCell>
        <mxCell id="ATfP_TEIRzoJEn-5p97k-37" style="rounded=0;orthogonalLoop=1;jettySize=auto;html=1;exitX=0;exitY=0.5;exitDx=0;exitDy=0;entryX=1;entryY=0.3333333333333333;entryDx=0;entryDy=0;entryPerimeter=0;endArrow=none;endFill=0;" parent="1" source="ATfP_TEIRzoJEn-5p97k-36" target="ATfP_TEIRzoJEn-5p97k-1" edge="1">
          <mxGeometry relative="1" as="geometry" />
        </mxCell>
        <mxCell id="ATfP_TEIRzoJEn-5p97k-40" style="rounded=0;orthogonalLoop=1;jettySize=auto;html=1;exitX=1;exitY=0.5;exitDx=0;exitDy=0;entryX=0;entryY=0.3333333333333333;entryDx=0;entryDy=0;entryPerimeter=0;endArrow=none;endFill=0;" parent="1" source="ATfP_TEIRzoJEn-5p97k-36" target="ATfP_TEIRzoJEn-5p97k-33" edge="1">
          <mxGeometry relative="1" as="geometry" />
        </mxCell>
        <mxCell id="ATfP_TEIRzoJEn-5p97k-36" value="CDU07-&lt;br&gt;Pede Correção" style="ellipse;whiteSpace=wrap;html=1;" parent="1" vertex="1">
          <mxGeometry x="364" y="460" width="100" height="50" as="geometry" />
        </mxCell>
      </root>
    </mxGraphModel>
  </diagram>
</mxfile>
